<svg xmlns="http://www.w3.org/2000/svg" width="134" height="45" fill="none">
    <g clip-path="url(#A)">
        <path d="M12.441 32.975l-4.466-7.888H6.061v7.888h-4.06V12.733h7.598c1.566 0 2.9.28 4.002.841 1.102.541 1.924 1.286 2.465 2.233.561.928.841 1.972.841 3.132a6.09 6.09 0 0 1-1.16 3.625c-.773 1.063-1.924 1.798-3.451 2.204l4.843 8.207h-4.698zm-6.38-10.933h3.393c1.102 0 1.924-.261 2.465-.783.541-.541.812-1.286.812-2.233 0-.928-.271-1.643-.812-2.146-.541-.522-1.363-.783-2.465-.783H6.061v5.945zm41.43 7.076h-8.062l-1.334 3.857h-4.263l7.279-20.271h4.727l7.279 20.271h-4.292l-1.334-3.857zm-1.102-3.248l-2.929-8.468-2.929 8.468h5.858zm28.096 3.683h9.106v3.422H69.787v-3.132l9.048-13.688h-9.048v-3.422h13.804v3.132l-9.106 13.688zm31.064-16.82v12.528c0 1.373.358 2.426 1.073 3.161.715.715 1.721 1.073 3.016 1.073 1.315 0 2.33-.358 3.045-1.073.715-.735 1.073-1.788 1.073-3.161V12.733h4.089v12.499c0 1.721-.377 3.18-1.131 4.379-.735 1.179-1.73 2.069-2.987 2.668-1.237.599-2.62.899-4.147.899-1.508 0-2.881-.3-4.118-.899-1.218-.599-2.185-1.489-2.9-2.668-.715-1.199-1.073-2.658-1.073-4.379V12.733h4.06z"
              fill="#3e46b6"/>
        <path d="M1.352 44.336h84.701" stroke="#36d7ff" stroke-width="2" stroke-linecap="round"/>
    </g>
    <defs>
        <clipPath id="A">
            <path fill="#fff" transform="translate(0 .975)" d="M0 0h134v43.361H0z"/>
        </clipPath>
    </defs>
</svg>
